# xmcd
# Track frame offsets:
# 150
# 21719
# 44313
# 64104
# 79884
# 108180
# 134426
# 157929
# 175685
# 199912
# 222445
#
# Disc length: 3241 seconds
# Revision: 1
# Processed by: cddbd v1.5.2PL0 Copyright (c) Steve Scherf et al.
# Submitted via: VisiTrax 2.10.3.257 - For more info visit www.synapsa.com
#
DISCID=9a0ca70b
DTITLE=Walker, Joe Louis - Hellfire
DYEAR=2012
DGENRE=Blues
TTITLE0=Hellfire
TTITLE1=I Won't Do That
TTITLE2=Ride All Night
TTITLE3=I'm On To You
TTITLE4=What's It Worth
TTITLE5=Soldier For Jesus
TTITLE6=I Know Why
TTITLE7=Too Drunk To Drive Drunk
TTITLE8=Black Girls
TTITLE9=Don't Cry
TTITLE10=Movin' On
EXTD=Produced by Tom Hambridge. Recorded at Sound Stage, Nashville, TN. Eng
EXTD=ineered by Jim Cooley. Assistant Engineer: Nick Autry. Mixed by Tom Ha
EXTD=mbridge and Michael Saint-Leon at The Switchyard, Nashville, TN. Maste
EXTD=red by Michael Saint-Leon at The Switchyard, Nashville, TN. Executiv
EXTD=e Producers: Joe Louis Walker, Robin Poritzky and David L. Jones. Jo
EXTD=e Louis Walker - Guitars, Slide Guitar, Vocals, Harmonica, Tom Hambrid
EXTD=ge - Drums, Percussion, Reese Wynana - Piano, B3 Organ, Rob McNelle
EXTD=y - Electric Guitar, Tommy MacDonals - Bass, John D'Amato - Second Gui
EXTD=tar slo on 'Movin On,' Wendy Moten - Backing Vocals on 'Black Girls' a
EXTD=nd 'Ride All Night,' The Jordanaires - Backing Vocals on 'Soldier Fo
EXTD=r Jesus' and 'Don't Cry,' Matt White - Trumpet on 'I Know Why' and 'To
EXTD=o Drunk To Drive Drunk,' Roy Agee - Trombone on 'I Know Why' and 'To
EXTD=o Drunk To Drive Drunk,' Max Abrams - Saxophone on 'I Know Why' and 'T
EXTD=oo Drunk To Drive Drunk.' ALLIGATOR ALCD 4945.
EXTT0=
EXTT1=
EXTT2=
EXTT3=
EXTT4=
EXTT5=
EXTT6=
EXTT7=
EXTT8=
EXTT9=
EXTT10=
PLAYORDER=
